<svg width="20" height="17" viewBox="0 0 20 17" fill="none" xmlns="http://www.w3.org/2000/svg">
<path d="M9.40223 0.0863419C9.49652 0.029842 9.60438 0 9.7143 0C9.82423 0 9.93209 0.029842 10.0264 0.0863419L18.2495 5.01999C18.6093 5.23587 18.907 5.54128 19.1137 5.90646C19.3203 6.27164 19.4288 6.68412 19.4286 7.10371V13.9644C19.4286 14.7696 19.1088 15.5417 18.5395 16.111C17.9702 16.6803 17.198 17.0002 16.3929 17.0002H3.03572C2.2306 17.0002 1.45845 16.6803 0.889142 16.111C0.319834 15.5417 3.15356e-07 14.7696 3.15356e-07 13.9644V7.10371C-0.000213482 6.68412 0.108285 6.27164 0.314922 5.90646C0.521558 5.54128 0.819282 5.23587 1.17907 5.01999L1.43772 5.45107L1.17907 5.01999L9.40223 0.0863419ZM9.7143 1.3152L1.80443 6.06185L1.78743 6.07157L9.7143 10.8279L17.6412 6.07157L17.6254 6.06185L9.7143 1.3152ZM18.2143 7.14378L10.0264 12.0568C9.93209 12.1133 9.82423 12.1431 9.7143 12.1431C9.60438 12.1431 9.49652 12.1133 9.40223 12.0568L1.21429 7.14378V13.9644C1.21429 14.4475 1.40619 14.9108 1.74777 15.2524C2.08936 15.594 2.55265 15.7859 3.03572 15.7859H16.3929C16.876 15.7859 17.3392 15.594 17.6808 15.2524C18.0224 14.9108 18.2143 14.4475 18.2143 13.9644V7.14378Z" fill="white"/>
</svg>
